<?xml version="1.0" encoding="UTF-8" standalone="no"?>
<svg
   width="368.91602"
   height="83.806244"
   viewBox="0 0 368.91602 83.806243"
   class="css-1j8o68f"
   version="1.1"
   id="svg266"
   xml:space="preserve"
   sodipodi:docname="op-logo.svg"
   inkscape:version="1.2.1 (9c6d41e410, 2022-07-14)"
   inkscape:export-filename="../../Downloads/op-logo-light.png"
   inkscape:export-xdpi="96"
   inkscape:export-ydpi="96"
   xmlns:inkscape="http://www.inkscape.org/namespaces/inkscape"
   xmlns:sodipodi="http://sodipodi.sourceforge.net/DTD/sodipodi-0.dtd"
   xmlns="http://www.w3.org/2000/svg"
   xmlns:svg="http://www.w3.org/2000/svg"><sodipodi:namedview
     id="namedview5070"
     pagecolor="#000000"
     bordercolor="#000000"
     borderopacity="0"
     inkscape:showpageshadow="true"
     inkscape:pageopacity="0"
     inkscape:pagecheckerboard="true"
     inkscape:deskcolor="#7a7a7a"
     showgrid="false"
     inkscape:zoom="1.9225976"
     inkscape:cx="258.24437"
     inkscape:cy="66.056464"
     inkscape:window-width="2558"
     inkscape:window-height="1415"
     inkscape:window-x="0"
     inkscape:window-y="23"
     inkscape:window-maximized="1"
     inkscape:current-layer="svg266"
     showborder="false"
     borderlayer="true"><inkscape:grid
       type="xygrid"
       id="grid6637" /></sodipodi:namedview><defs
     id="SvgjsDefs2085"><rect
       x="101.02936"
       y="2.9220307"
       width="143.40782"
       height="52.259087"
       id="rect445" /></defs><g
     aria-label="ONEPUNCH"
     transform="matrix(4.703775,0,0,4.7037749,-390.78959,-20.225019)"
     id="text443"
     style="font-stretch:semi-condensed;font-size:12px;font-family:'DejaVu Sans';-inkscape-font-specification:'DejaVu Sans, Semi-Condensed';white-space:pre;shape-inside:url(#rect445);display:inline;fill:#ffffff;fill-opacity:1;stroke-width:1.333"><path
       d="m 105.2832,5.59375 q -1.16015,0 -1.8457,0.9609375 -0.67969,0.9609375 -0.67969,2.6191406 0,1.6523439 0.67969,2.6132809 0.68555,0.960938 1.8457,0.960938 1.16016,0 1.83985,-0.960938 0.67968,-0.960937 0.67968,-2.6132809 0,-1.6582031 -0.67968,-2.6191406 Q 106.44336,5.59375 105.2832,5.59375 Z m 0,-0.9609375 q 1.65821,0 2.64844,1.2363281 0.99024,1.2304688 0.99024,3.3046875 0,2.0683599 -0.99024,3.3046879 -0.99023,1.230468 -2.64844,1.230468 -1.6582,0 -2.65429,-1.230468 -0.99024,-1.230469 -0.99024,-3.3046879 0,-2.0742187 0.99024,-3.3046875 0.99609,-1.2363281 2.65429,-1.2363281 z"
       id="path6832"
       style="fill:#ffffff;fill-opacity:1" /><path
       d="m 110.58594,4.7910156 h 1.43554 l 3.49219,7.3183594 V 4.7910156 h 1.03125 v 8.7480474 h -1.43554 l -3.49219,-7.3183599 v 7.3183599 h -1.03125 z"
       id="path6834"
       style="fill:#ffffff;fill-opacity:1" /><path
       d="m 118.66016,4.7910156 h 4.97461 v 0.9960938 h -3.90821 v 2.5898437 h 3.75 v 0.9960938 h -3.75 v 3.1699221 h 4.00782 v 0.996094 h -5.07422 z"
       id="path6836"
       style="fill:#ffffff;fill-opacity:1" /><path
       d="m 126.54688,5.7636719 v 3.2871094 h 1.33593 q 0.74414,0 1.14844,-0.4277344 0.41016,-0.4277344 0.41016,-1.21875 0,-0.7851563 -0.41016,-1.2128907 -0.4043,-0.4277343 -1.14844,-0.4277343 z m -1.06641,-0.9726563 h 2.40234 q 1.32422,0 1.99805,0.6679688 0.67969,0.6621093 0.67969,1.9453125 0,1.2949219 -0.67969,1.9570312 -0.67383,0.6621099 -1.99805,0.6621099 h -1.33593 v 3.515625 h -1.06641 z"
       id="path6838"
       style="fill:#ffffff;fill-opacity:1" /><path
       d="m 131.86719,4.7910156 h 1.07226 v 5.3144534 q 0,1.40625 0.45703,2.027344 0.46289,0.615234 1.48829,0.615234 1.02539,0 1.48242,-0.615234 0.45703,-0.621094 0.45703,-2.027344 V 4.7910156 h 1.07226 v 5.4609374 q 0,1.710938 -0.76171,2.583985 -0.76172,0.873046 -2.25,0.873046 -1.49415,0 -2.25586,-0.873046 -0.76172,-0.873047 -0.76172,-2.583985 z"
       id="path6840"
       style="fill:#ffffff;fill-opacity:1" /><path
       d="m 139.89453,4.7910156 h 1.43555 l 3.49219,7.3183594 V 4.7910156 h 1.03125 v 8.7480474 h -1.43555 l -3.49219,-7.3183599 v 7.3183599 h -1.03125 z"
       id="path6842"
       style="fill:#ffffff;fill-opacity:1" /><path
       d="m 153.86328,5.4648437 v 1.2480469 q -0.53906,-0.5566406 -1.14844,-0.8320312 -0.60937,-0.2753907 -1.29492,-0.2753907 -1.34765,0 -2.06836,0.9199219 -0.71484,0.9140625 -0.71484,2.6484375 0,1.7285159 0.71484,2.6484379 0.72071,0.914062 2.06836,0.914062 0.68555,0 1.29492,-0.27539 0.60938,-0.275391 1.14844,-0.832032 v 1.236328 q -0.55664,0.421875 -1.18359,0.632813 -0.62696,0.210937 -1.31836,0.210937 -1.79297,0 -2.81836,-1.21289 -1.02539,-1.21875 -1.02539,-3.3222659 0,-2.109375 1.02539,-3.3222656 1.02539,-1.21875 2.81836,-1.21875 0.70312,0 1.33008,0.2109375 0.62695,0.2050781 1.17187,0.6210937 z"
       id="path6844"
       style="fill:#ffffff;fill-opacity:1" /><path
       d="m 155.50977,4.7910156 h 1.0664 v 3.5859375 h 3.86719 V 4.7910156 h 1.06641 v 8.7480474 h -1.06641 V 9.3730469 h -3.86719 v 4.1660161 h -1.0664 z"
       id="path6846"
       style="fill:#ffffff;fill-opacity:1" /></g><g
     aria-label="TECHNOLOGIES"
     id="text507"
     style="font-weight:200;font-size:26.6667px;font-family:'DejaVu Sans';-inkscape-font-specification:'DejaVu Sans, Ultra-Light';fill:#ffffff;fill-opacity:1;stroke-width:1.333"
     transform="translate(87.29585,1.566688)"><path
       d="m 26.936251,58.252147 h 15.117207 v 1.06771 h -6.90105 V 77.692276 H 33.837302 V 59.319857 h -6.901051 z"
       id="path6806"
       style="fill:#ffffff;fill-opacity:1" /><path
       d="m 45.881588,58.252147 h 10.989597 v 1.080731 h -9.66147 v 7.460947 h 9.257824 v 1.054689 h -9.257824 v 8.789073 h 9.895846 v 1.054689 H 45.881588 Z"
       id="path6808"
       style="fill:#ffffff;fill-opacity:1" /><path
       d="m 76.662876,59.866733 v 1.497397 q -1.328127,-1.210939 -2.825525,-1.796877 -1.510418,-0.598959 -3.203129,-0.598959 -3.67188,0 -5.611986,2.317711 -1.953128,2.317712 -1.953128,6.705738 0,4.388026 1.953128,6.718758 1.940106,2.330733 5.611986,2.330733 1.692711,0 3.203129,-0.59896 1.497398,-0.61198 2.825525,-1.822919 v 1.575523 q -1.38021,0.937501 -2.929692,1.406252 -1.53646,0.468751 -3.255212,0.468751 -4.088547,0 -6.4323,-2.695316 -2.343753,-2.708337 -2.343753,-7.382822 0,-4.687506 2.343753,-7.382822 2.343753,-2.708337 6.4323,-2.708337 1.744794,0 3.281254,0.494793 1.549481,0.481771 2.90365,1.471356 z"
       id="path6810"
       style="fill:#ffffff;fill-opacity:1" /><path
       d="m 81.350386,58.252147 h 1.315106 v 8.541678 h 10.872409 v -8.541678 h 1.315106 V 77.692276 H 93.537901 V 67.848514 H 82.665492 v 9.843762 h -1.315106 z"
       id="path6812"
       style="fill:#ffffff;fill-opacity:1" /><path
       d="m 101.38947,58.252147 h 1.92709 l 9.42709,17.77346 v -17.77346 h 1.30209 v 19.440129 h -1.84896 L 102.7176,59.801628 v 17.890648 h -1.32813 z"
       id="path6814"
       style="fill:#ffffff;fill-opacity:1" /><path
       d="m 133.68118,61.35111 q -1.875,-2.434899 -5.06511,-2.434899 -3.1901,0 -5.07813,2.434899 -1.875,2.434898 -1.875,6.640633 0,4.179693 1.875,6.614592 1.88803,2.434899 5.07813,2.434899 3.19011,0 5.06511,-2.434899 1.86199,-2.434899 1.86199,-6.614592 0,-4.205735 -1.86199,-6.640633 z m -5.06511,-3.450526 q 3.77605,0 6.04168,2.734379 2.26563,2.747399 2.26563,7.35678 0,4.59636 -2.26563,7.330738 -2.26563,2.7474 -6.04168,2.7474 -3.78906,0 -6.06771,-2.734379 -2.26563,-2.734378 -2.26563,-7.343759 0,-4.609381 2.26563,-7.35678 2.27865,-2.734379 6.06771,-2.734379 z"
       id="path6816"
       style="fill:#ffffff;fill-opacity:1" /><path
       d="m 142.35307,58.252147 h 1.30208 v 18.372419 h 9.46616 v 1.06771 h -10.76824 z"
       id="path6818"
       style="fill:#ffffff;fill-opacity:1" /><path
       d="m 168.57706,61.35111 q -1.875,-2.434899 -5.06511,-2.434899 -3.19011,0 -5.07813,2.434899 -1.87501,2.434898 -1.87501,6.640633 0,4.179693 1.87501,6.614592 1.88802,2.434899 5.07813,2.434899 3.19011,0 5.06511,-2.434899 1.86198,-2.434899 1.86198,-6.614592 0,-4.205735 -1.86198,-6.640633 z m -5.06511,-3.450526 q 3.77604,0 6.04167,2.734379 2.26563,2.747399 2.26563,7.35678 0,4.59636 -2.26563,7.330738 -2.26563,2.7474 -6.04167,2.7474 -3.78907,0 -6.06772,-2.734379 -2.26563,-2.734378 -2.26563,-7.343759 0,-4.609381 2.26563,-7.35678 2.27865,-2.734379 6.06772,-2.734379 z"
       id="path6820"
       style="fill:#ffffff;fill-opacity:1" /><path
       d="m 190.53021,76.038628 v -6.809904 h -4.96094 v -1.06771 h 6.25 v 8.502615 q -1.39323,0.690105 -3.0599,1.028647 -1.66666,0.351563 -3.56771,0.377605 -4.21875,0 -6.58855,-2.669275 -2.38281,-2.656253 -2.38281,-7.408863 0,-4.765631 2.38281,-7.434905 2.3698,-2.656254 6.58855,-2.656254 1.7448,0 3.29428,0.351563 1.5625,0.377605 2.86458,1.106773 v 1.263022 q -1.3151,-0.729168 -2.8125,-1.106772 -1.48438,-0.364584 -3.125,-0.364584 -3.91928,0 -5.88543,2.226565 -1.96615,2.213545 -1.96615,6.614592 0,4.466151 1.96615,6.718758 1.96615,2.265628 5.88543,2.265628 1.60156,0 2.86458,-0.221354 1.25,-0.234375 2.25261,-0.716147 z"
       id="path6822"
       style="fill:#ffffff;fill-opacity:1" /><path
       d="m 197.88699,58.252147 h 1.35417 v 19.440129 h -1.35417 z"
       id="path6824"
       style="fill:#ffffff;fill-opacity:1" /><path
       d="m 205.76461,58.252147 h 10.9896 v 1.080731 h -9.66147 v 7.460947 h 9.25782 v 1.054689 h -9.25782 v 8.789073 h 9.89584 v 1.054689 h -11.22397 z"
       id="path6826"
       style="fill:#ffffff;fill-opacity:1" /><path
       d="m 233.486,59.228711 v 1.22396 q -1.27604,-0.638022 -2.82552,-1.132814 -1.01563,-0.325521 -2.56511,-0.351563 -2.29167,-0.03906 -3.72396,1.015626 -1.30209,0.963543 -1.30209,3.307296 0,1.445314 0.98959,2.29167 1.05469,0.898438 3.17708,1.445314 l 1.54949,0.403646 q 2.08333,0.546876 3.21615,1.302085 2.12239,1.445315 2.12239,3.632817 0,3.164067 -1.86198,4.388027 -2.03125,1.315106 -4.16667,1.315106 -2.22657,0 -3.98438,-0.61198 -1.10677,-0.442709 -2.31771,-1.22396 v -1.276043 q 1.82292,1.08073 2.55209,1.38021 1.6276,0.664063 3.02083,0.664063 2.38282,0 3.95834,-1.054689 1.48438,-0.989584 1.48438,-3.476567 0,-1.458335 -0.91146,-2.291669 -1.31511,-1.210939 -3.41146,-1.718752 l -1.56251,-0.377605 q -1.875,-0.45573 -3.1901,-1.276043 -1.99219,-1.250002 -1.99219,-3.411463 0,-2.695316 1.6276,-4.14063 1.51042,-1.341148 4.58334,-1.354169 1.8099,0 2.77344,0.312501 2.47396,0.807292 2.76042,1.015626 z"
       id="path6828"
       style="fill:#ffffff;fill-opacity:1" /></g><g
     id="g4122"
     transform="matrix(0.09072885,0,0,0.09709023,-72.65149,32.948372)"
     style="fill:#e53935;fill-opacity:1"><g
       id="g250"
       style="fill:#e53935;fill-opacity:1"
       transform="translate(763.154,-407.7438)"><g
         id="g220"
         style="fill:#e53935;fill-opacity:1"><path
           d="m 633.7,181.2 c 1.2,12.1 -1.4,22.3 -11.4,27.9 -7.4,4.2 -14.7,0.7 -21.5,-4.1 -4.9,-3.4 -9.8,-6.8 -15,-9.8 -47.5,-27.5 -95.2,-57.3 -142.6,-84.8 -22.8,-13.2 -21.4,-12.6 -1.5,-27.7 27.2,-20.8 48.5,-17.2 78.7,-0.3 29.6,16.6 51.7,29.1 78.3,45.1 22.2,11.2 33.8,23.9 35,53.7 z"
           id="path218"
           style="fill:#e53935;fill-opacity:1" /></g><g
         id="g224"
         style="fill:#e53935;fill-opacity:1"><path
           d="m 842.8,457.4 c -9.9,7.1 -20.1,9.9 -29.9,4 -7.3,-4.4 -7.9,-12.5 -7.2,-20.7 0.5,-6 1,-11.9 1,-17.9 0.2,-54.9 2.3,-111.1 2.6,-165.8 0.1,-26.3 0.3,-24.8 23.3,-15.1 31.6,13.3 39.1,33.5 39.4,68.1 0.4,33.9 0.6,59.3 -0.2,90.3 1.5,24.9 -3.7,41.2 -29,57.1 z"
           id="path222"
           style="fill:#e53935;fill-opacity:1" /></g><g
         id="g228"
         style="fill:#e53935;fill-opacity:1"><path
           d="m 707.4,776.3 c -11,-5.1 -18.5,-12.5 -18.3,-23.9 0.2,-8.5 6.9,-13.1 14.3,-16.5 5.4,-2.5 10.8,-5.1 16,-8 47.7,-27.2 97.5,-53.3 145.1,-80.3 22.9,-13 21.7,-12.1 24.7,12.6 4.2,34 -9.6,50.5 -39.4,68.1 -29.2,17.2 -51.2,30 -78.4,44.8 -20.9,13.6 -37.7,17.2 -64,3.2 z"
           id="path226"
           style="fill:#e53935;fill-opacity:1" /></g><g
         id="g232"
         style="fill:#e53935;fill-opacity:1"><path
           d="m 363.4,817.6 c -1.1,-12.1 1.6,-22.3 11.6,-27.8 7.5,-4.1 14.7,-0.6 21.5,4.2 4.9,3.5 9.8,6.8 14.9,9.9 47.3,27.8 94.8,58 141.9,85.9 22.7,13.4 21.3,12.8 1.3,27.7 -27.4,20.6 -48.6,16.9 -78.7,-0.3 -29.5,-16.8 -51.5,-29.4 -77.9,-45.7 -22.1,-11.3 -33.6,-24.1 -34.6,-53.9 z"
           id="path230"
           style="fill:#e53935;fill-opacity:1" /></g><g
         id="g236"
         style="fill:#e53935;fill-opacity:1"><path
           d="m 156.3,539.8 c 9.9,-7 20.1,-9.7 29.9,-3.8 7.3,4.4 7.8,12.5 7,20.7 -0.6,6 -1.1,11.9 -1.1,17.9 -0.6,54.9 -3.1,111.1 -3.8,165.8 -0.3,26.3 -0.5,24.8 -23.4,15 -31.5,-13.5 -38.8,-33.8 -38.9,-68.4 -0.1,-33.9 -0.1,-59.3 0.8,-90.3 -1.2,-24.8 4.2,-41.2 29.5,-56.9 z"
           id="path234"
           style="fill:#e53935;fill-opacity:1" /></g><g
         id="g240"
         style="fill:#e53935;fill-opacity:1"><path
           d="m 294.2,222 c 11,5.1 18.4,12.6 18.1,24.1 -0.2,8.5 -7,13 -14.5,16.4 -5.4,2.5 -10.8,5 -16,7.9 -47.9,26.8 -97.9,52.6 -145.7,79.2 -23,12.8 -21.7,11.9 -24.6,-12.8 -3.9,-34 10,-50.5 39.9,-67.8 29.4,-17 51.4,-29.6 78.8,-44.2 20.9,-13.5 37.8,-17 64,-2.8 z"
           id="path238"
           style="fill:#e53935;fill-opacity:1" /></g><g
         id="g244"
         style="fill:#e53935;fill-opacity:1"><path
           d="m 729.8,111.2 c -40,0 -72.5,32.5 -72.5,72.5 0,27.2 15.1,51 37.3,63.4 -0.4,64 -0.6,127.9 -0.3,191.9 0.1,17.5 -7.1,25.5 -21.2,36.7 -8.2,6.6 -14.8,12.4 -20,18 -4.7,5 -11.8,7.1 -18.5,5.5 l -46.7,-10.8 c 5.9,20.4 0.8,42.7 -13.3,58.6 l 60,13.9 c 2.2,0.5 4.3,0.5 6.4,0.2 2.8,1.1 6.7,-0.4 11.5,-3.1 14.7,-8.5 62.9,-35.4 72.5,-41.3 21.3,-13 30.8,-24.9 30.2,-50.3 -1.5,-71.5 -1.8,-143.2 0.3,-214.7 27.4,-10.4 46.8,-36.9 46.8,-67.8 0.1,-40.2 -32.5,-72.7 -72.5,-72.7 z m 25.9,112.4 c -7.4,4.8 -16.3,7.7 -25.9,7.7 -13.9,0 -26.3,-5.9 -35,-15.4 -7.8,-8.5 -12.5,-19.8 -12.5,-32.1 0,-26.3 21.3,-47.5 47.5,-47.5 26.3,0 47.5,21.3 47.5,47.5 0.1,16.6 -8.5,31.3 -21.6,39.8 z"
           id="path242"
           style="fill:#e53935;fill-opacity:1" /></g><g
         id="g248"
         style="fill:#e53935;fill-opacity:1"><path
           d="m 552.6,528.3 -8.1,8.6 -1.9,2.1 -10.1,10.7 c -8.1,8.7 -20.3,12.4 -31.8,9.7 l -11.8,-2.7 -2,-0.5 -15.2,-3.5 c -11.7,-2.7 -21,-11.5 -24.4,-23 l -3.2,-10.8 -0.6,-2.2 -4.5,-15.3 c -3.2,-11.3 -0.4,-23.5 7.6,-32.1 l 8.1,-8.6 1.9,-2 10.2,-10.9 c 6.3,-6.8 15.2,-10.5 24.3,-10.5 2.5,0 5,0.2 7.4,0.8 l 11.7,2.7 2.2,0.5 15,3.5 c 11.7,2.7 21.1,11.5 24.4,23 l 3.2,11 0.6,2.2 4.5,15.3 c 3.4,11.2 0.5,23.5 -7.5,32 z"
           id="path246"
           style="fill:#e53935;fill-opacity:1" /></g></g><path
       d="m 1651.954,65.756202 c -38.9,0 -70.8,30.8 -72.5,69.399998 -55.8,31.6 -111.5,63.3 -167,95.5 -15.1,8.8 -25.6,6.5 -42.3,-0.2 -10.5,-4.2 -19.3,-7.1 -27.1,-8.8 -7.1,-1.5 -12.7,-6.7 -14.7,-13.6 l -13.2,-44.9 c -11.7,11.8 -27.6,18.2 -43.9,18.2 -4.6,0 -9.4,-0.5 -13.9,-1.6 l 17.4,59.4 c 1.1,3.7 3.5,6.7 6.5,8.6 1.4,2 4,3.8 7.4,5.8 14.7,8.6 62,36.9 71.9,42.3 21.9,12 36.9,14.3 58.7,1.2 60.4,-36.5 121.6,-71.9 183.8,-105.3 12.9,11.8 30.1,19 48.9,19 40,0 72.5,-32.5 72.5,-72.5 0,-39.999998 -32.5,-72.499998 -72.5,-72.499998 z m 0,120.099998 c -9.2,0 -17.8,-2.6 -25.1,-7.2 -13.5,-8.4 -22.5,-23.3 -22.5,-40.4 0,-7 1.5,-13.7 4.3,-19.7 7.5,-16.4 24.1,-27.899998 43.3,-27.899998 26.3,0 47.5,21.299998 47.5,47.499998 0.1,26.4 -21.2,47.7 -47.5,47.7 z"
       id="path252"
       style="fill:#e53935;fill-opacity:1" /><path
       d="m 1420.854,377.2562 c -13.9,0 -26.9,3.9 -38,10.8 -55,-32.6 -110.2,-65 -165.6,-97 -15.1,-8.7 -18.3,-19 -20.9,-36.9 -1.6,-11 -3.5,-20 -5.8,-27.5 -2.1,-6.8 -0.5,-14.2 4.3,-19.4 l 32.4,-34.5 c -20.7,-5.2 -37.4,-20.7 -43.9,-41 l -42,44.9 c -2.4,2.5 -3.8,5.6 -4,8.8 v 0.1 c -1.1,2.2 -1.4,5.4 -1.4,9.3 -0.1,17 -1.2,72.2 -0.9,83.5 0.6,25 6,39.2 28.2,51.5 62.8,35 125.1,71 186.1,109.1 -0.5,3.6 -0.8,7.2 -0.8,10.9 0,40 32.6,72.5 72.5,72.5 40,0 72.5,-32.5 72.5,-72.5 0,-40 -32.7,-72.6 -72.7,-72.6 z m 0,120 c -25.1,0 -45.7,-19.5 -47.4,-44.2 -0.1,-1.1 -0.1,-2.2 -0.1,-3.3 0,-22.3 15.3,-41 36,-46.1 3.7,-0.9 7.5,-1.4 11.5,-1.4 26.3,0 47.5,21.3 47.5,47.5 0.1,26.3 -21.2,47.5 -47.5,47.5 z"
       id="path254"
       style="fill:#e53935;fill-opacity:1" /><path
       d="m 1187.854,42.756202 -60.1,-14 c -3.7,-0.8 -7.4,-0.3 -10.5,1.3 -1.9,0.5 -4.2,1.6 -6.7,3 -14.8,8.4 -63.2,34.9 -72.9,40.8 -21.3,12.9 -30.9,24.7 -30.6,50.099998 1,73 0.7,146.1 -2.1,219.1 -24.8,11.5 -42,36.7 -42,65.8 0,40 32.5,72.5 72.5,72.5 40,0 72.5,-32.5 72.5,-72.5 0,-29.1 -17.3,-54.3 -42.1,-65.8 0.9,-63.8 1.6,-127.6 1.7,-191.4 0.1,-17.5 7.4,-25.4 21.5,-36.5 8.7,-6.8 15.7,-12.9 21,-18.799998 4.7,-5 11.8,-7.1 18.5,-5.6 l 45.5,10.499998 c -5.5,-20.399998 -0.4,-42.699998 13.8,-58.499998 z m -104.7,365.999998 c 0,26.3 -21.3,47.5 -47.5,47.5 -26.3,0 -47.5,-21.3 -47.5,-47.5 0,-14.8 6.8,-28.1 17.4,-36.8 8.2,-6.7 18.7,-10.8 30.1,-10.8 11.4,0 21.9,4 30.1,10.7 10.6,8.8 17.4,22.1 17.4,36.9 z"
       id="path256"
       style="fill:#e53935;fill-opacity:1" /><path
       d="m 1250.654,-57.143798 c -1.3,-4.5 -4.6,-8 -8.5,-9.8 h -0.1 c -1.1,-0.8 -2.3,-1.6 -3.7,-2.4 -14.6,-8.7 -61.7,-37.400002 -71.6,-42.900002 -21.9,-12.1 -36.8,-14.6 -58.7,-1.6 -64.1,38.000002 -129.1,74.900002 -195.2,109.4000022 -11.4,-7.5000002 -25,-11.8000002 -39.6,-11.8000002 -40,0 -72.5,32.5 -72.5,72.5 0,40 32.5,72.499998 72.5,72.499998 40,0 72.5,-32.499998 72.5,-72.499998 0,-3 -0.2,-5.9 -0.5,-8.8 56.5,-31.4 112.8,-62.9 169,-94.9 15.2,-8.7 25.7,-6.3 42.3,0.5 10.4,4.2 19.1,7.1 26.8,8.9 6.9,1.6 12.2,6.8 14.2,13.5 l 12.6,43.3 c 15.1,-15.0999998 36.9,-21.3999998 57.8,-16.6999998 z M 873.354,103.8562 c -26.3,0 -47.5,-21.299998 -47.5,-47.499998 0,-26.2 21.3,-47.4999998 47.5,-47.4999998 5.3,0 10.5,0.9 15.3,2.4999998 v 0 c 18.8,6.4 32.3,24.1 32.3,45 0,1.7 -0.1,3.3 -0.3,5 -2.5,23.9 -22.8,42.499998 -47.3,42.499998 z"
       id="path258"
       style="fill:#e53935;fill-opacity:1" /><path
       d="m 1389.554,-94.843798 c -0.7,-25.000002 -6.3,-39.100002 -28.6,-51.300002 -65.4,-35.7 -130.4,-72.7 -193.8,-111.9 0.1,-1.2 0.1,-2.4 0.1,-3.6 0,-40 -32.6,-72.5 -72.5,-72.5 -40,0 -72.5,32.5 -72.5,72.5 0,40 32.5,72.5 72.5,72.5 16.5,0 31.7,-5.5 43.8,-14.8 56,32.6 112.1,65.1 168.5,97.1 15.2,8.600002 18.5,18.900002 21.3,36.700002 1.7,10.8 3.5,19.5 5.8,27 2.1,6.7 0.4,13.9 -4.5,19 l -31.3,33.4000002 c 20.7,5.1999998 37.4,20.7999998 43.8,41.0999998 l 42.1,-44.8999998 c 2.3,-2.5 3.6,-5.30000002 4,-8.4 v -0.1 c 0.7,-2.2 1,-5 1,-8.3000002 -0.1,-17 0.6,-72.2 0.3,-83.5 z m -275.6,-123.400002 c -5.9,2.6 -12.4,4.1 -19.3,4.1 -26.3,0 -47.5,-21.3 -47.5,-47.5 0,-26.3 21.3,-47.5 47.5,-47.5 23.1,0 42.4,16.5 46.6,38.3 0.6,3 0.9,6.1 0.9,9.2 0,19.3 -11.6,36 -28.2,43.4 z"
       id="path260"
       style="fill:#e53935;fill-opacity:1" /></g></svg>
